<?xml version="1.0" encoding="utf-8"?>
<!-- Generator: Adobe Illustrator 18.1.1, SVG Export Plug-In . SVG Version: 6.00 Build 0)  -->
<svg version="1.1" id="Layer_1" xmlns="http://www.w3.org/2000/svg" xmlns:xlink="http://www.w3.org/1999/xlink" x="0px" y="0px"
	 viewBox="-510.7 192.9 500.5 203.6" enable-background="new -510.7 192.9 500.5 203.6" xml:space="preserve">
<g>
	<g>
		<path fill="#EB008B" stroke="#EB008B" stroke-miterlimit="10" d="M-57.1,327.5c-6.1-37-32.8-66.8-68.1-77.1c0-44.3,0-13.9,0-48.5
			c0-28-23.8,20.2-35.1,45c-48.5,3.8-87.1,43.1-88.9,92.8h41.1c-8.8,16.2-14,29.4-0.9,19.4c22.1-16.8,8.1-6.2,25.4-19.4h25.5
			c34.7,26.5,11.4,8.7,37.1,28.3c15.4,11.8,5.4-8.7-5.9-28.3h43.3c4.9,25,16.2,75.5,20.6,48.4c4.9-29.5,1.6-9.9,5.7-34.8
			c29.6-0.1,7.3,0,38.2-0.2C6.3,353.2-32.1,337.1-57.1,327.5z"/>
		<g>
			<path fill="#FFFFFF" d="M-188.9,293.1c1-2.2,2.1-4.4,3.9-6.1c1.8-1.6,4.6-2.3,6.7-1.1c1.8,1,2.6,3.2,2.5,5.2s-1.1,3.9-2.2,5.6
				c-2.8,4.3-6.8,7.9-11.4,10.2"/>
			<path fill="#EB008B" d="M-188.9,293.1c0,0,0.2-0.6,0.7-1.7c0.2-0.5,0.5-1.2,0.9-1.9c0.4-0.7,0.9-1.5,1.6-2.2
				c0.7-0.7,1.6-1.4,2.7-1.9c1.1-0.4,2.4-0.7,3.7-0.3c1.3,0.3,2.5,1.3,3.1,2.6c0.6,1.2,0.9,2.7,0.7,4.1c-0.2,1.4-0.7,2.7-1.3,3.8
				c-0.6,1.2-1.4,2.2-2.1,3.2c-1.5,2-3.3,3.5-4.8,4.8c-1.6,1.2-3,2-4,2.6c-0.5,0.3-0.9,0.5-1.2,0.6c-0.3,0.1-0.4,0.2-0.4,0.2
				s0.6-0.3,1.5-0.9c1-0.6,2.3-1.6,3.8-2.8c1.5-1.3,3-2.9,4.5-4.9c0.7-1,1.4-2,2-3.1c0.6-1.1,1-2.3,1.2-3.5c0.2-1.2,0-2.5-0.5-3.5
				c-0.5-1.1-1.4-1.9-2.5-2.2c-1.1-0.3-2.2-0.2-3.2,0.2c-1,0.3-1.9,0.9-2.5,1.6c-1.4,1.3-2.2,2.8-2.7,3.8
				C-188.6,292.5-188.9,293.1-188.9,293.1z"/>
		</g>
		<g>
			<path fill="#FFFFFF" d="M-188.8,292.9c-0.9-2.2-1.8-4.5-3.5-6.3c-1.7-1.7-4.4-2.6-6.6-1.6c-1.8,0.9-2.8,3-2.8,5.1
				c0,2,0.8,4,1.8,5.9c2.5,4.5,6.3,8.3,10.8,10.9"/>
			<path fill="#EB008B" d="M-188.8,292.9c0,0-0.3-0.6-0.8-1.6c-0.5-1-1.2-2.5-2.5-3.9c-0.6-0.7-1.5-1.3-2.4-1.8
				c-1-0.4-2.1-0.6-3.2-0.4s-2,1-2.6,2c-0.6,1-0.9,2.2-0.8,3.5c0.1,1.2,0.5,2.4,1,3.6c0.5,1.1,1.1,2.2,1.8,3.2
				c1.3,2,2.8,3.8,4.1,5.1c1.4,1.4,2.6,2.4,3.6,3.1c0.9,0.7,1.5,1,1.5,1s-0.1-0.1-0.4-0.2c-0.3-0.1-0.7-0.4-1.2-0.7
				c-1-0.6-2.4-1.5-3.8-2.8c-1.5-1.3-3.1-3-4.5-5.1c-0.7-1-1.4-2.1-1.9-3.3c-0.6-1.2-1-2.5-1.1-3.9c-0.1-1.4,0.2-2.8,0.9-4
				c0.7-1.2,1.9-2.1,3.3-2.4c1.3-0.3,2.6,0.1,3.7,0.6s1.9,1.3,2.6,2c0.6,0.8,1.1,1.6,1.4,2.3c0.3,0.7,0.6,1.4,0.8,1.9
				C-189,292.3-188.8,292.9-188.8,292.9z"/>
		</g>
	</g>
	<g>
		<path fill="#EB008B" stroke="#EB008B" stroke-miterlimit="10" d="M-501.9,353.3c30.9,0.2,8.6,0.1,38.2,0.2
			c4.1,24.9,0.8,5.2,5.7,34.8c4.4,27.1,15.7-23.5,20.6-48.4h43.3c-11.3,19.6-21.2,40.1-5.9,28.3c25.7-19.6,2.4-1.8,37.1-28.3h25.5
			c17.3,13.3,3.3,2.6,25.4,19.4c13.1,10,7.9-3.2-0.9-19.4h41.1c-1.8-49.8-40.4-89.1-89-92.9c-11.3-24.8-35.1-73-35.1-45
			c0,34.7,0,4.2,0,48.5c-35.3,10.3-62.1,40.1-68.1,77.1C-488.9,337.1-527.3,353.2-501.9,353.3z"/>
		<g>
			<path fill="#FFFFFF" d="M-331.7,307.1c-4.6-2.3-8.6-5.9-11.4-10.2c-1.1-1.7-2.1-3.6-2.2-5.6c-0.1-2,0.7-4.2,2.5-5.2
				c2-1.2,4.8-0.5,6.7,1.1c1.8,1.6,2.9,3.8,3.9,6.1"/>
			<path fill="#EB008B" d="M-333.3,291.7c-0.5-1-1.3-2.5-2.7-3.8c-0.6-0.7-1.5-1.3-2.5-1.6c-1-0.4-2.1-0.5-3.2-0.2s-2,1.1-2.5,2.2
				c-0.5,1-0.7,2.3-0.5,3.5s0.6,2.4,1.2,3.5c0.6,1.1,1.3,2.1,2,3.1c1.5,2,3,3.6,4.5,4.9c1.5,1.2,2.8,2.2,3.8,2.8
				c0.9,0.6,1.5,0.9,1.5,0.9s-0.1-0.1-0.4-0.2c-0.3-0.1-0.7-0.3-1.2-0.6c-1-0.6-2.4-1.4-4-2.6c-1.5-1.3-3.3-2.8-4.8-4.8
				c-0.7-1-1.5-2-2.1-3.2c-0.6-1.1-1.1-2.4-1.3-3.8c-0.2-1.4,0.1-2.9,0.7-4.1c0.6-1.3,1.8-2.3,3.1-2.6c1.3-0.4,2.6-0.1,3.7,0.3
				c1.1,0.5,2,1.2,2.7,1.9c0.7,0.7,1.2,1.5,1.6,2.2c0.4,0.7,0.7,1.4,0.9,1.9c0.5,1.1,0.7,1.7,0.7,1.7S-332.4,292.5-333.3,291.7z"/>
		</g>
		<g>
			<path fill="#FFFFFF" d="M-331.9,307c4.5-2.6,8.3-6.4,10.8-10.9c1-1.8,1.8-3.8,1.8-5.9c0-2.1-1-4.2-2.8-5.1
				c-2.1-1-4.8-0.1-6.6,1.6c-1.7,1.7-2.6,4-3.5,6.3"/>
			<path fill="#EB008B" d="M-331.8,291.1c0.2-0.5,0.5-1.2,0.8-1.9c0.3-0.7,0.8-1.5,1.4-2.3c0.7-0.7,1.5-1.5,2.6-2
				c1.1-0.5,2.4-0.9,3.7-0.6c1.4,0.3,2.6,1.2,3.3,2.4c0.7,1.2,1,2.6,0.9,4c-0.1,1.4-0.5,2.7-1.1,3.9c-0.5,1.2-1.2,2.3-1.9,3.3
				c-1.4,2.1-3,3.8-4.5,5.1c-1.4,1.3-2.8,2.2-3.8,2.8c-0.5,0.3-0.9,0.6-1.2,0.7c-0.3,0.1-0.4,0.2-0.4,0.2s0.6-0.3,1.5-1
				c1-0.7,2.2-1.7,3.6-3.1c1.3-1.3,2.8-3.1,4.1-5.1c0.7-1,1.3-2.1,1.8-3.2c0.5-1.2,0.9-2.4,1-3.6c0.1-1.3-0.2-2.5-0.8-3.5
				c-0.6-1-1.5-1.8-2.6-2c-1.1-0.2-2.2,0-3.2,0.4c-0.9,0.5-1.8,1.1-2.4,1.8c-1.3,1.4-2,2.9-2.5,3.9c-0.5,1-0.8,1.6-0.8,1.6
				S-332,292.3-331.8,291.1z"/>
		</g>
	</g>
</g>
</svg>
